<svg width="54" height="53" viewBox="0 0 54 53" fill="none" xmlns="http://www.w3.org/2000/svg">
<ellipse cx="46.5774" cy="6.83286" rx="4.9524" ry="4.96567" stroke="#EB7124" stroke-width="3" stroke-linecap="round" stroke-linejoin="round"/>
<path d="M33.6148 3.69922H14.89C7.13122 3.69922 2.32031 9.20875 2.32031 16.9883V37.8678C2.32031 45.6473 7.03688 51.1332 14.89 51.1332H37.0579C44.8166 51.1332 49.6275 45.6473 49.6275 37.8678V19.684" stroke="#EB7124" stroke-width="3" stroke-linecap="round" stroke-linejoin="round"/>
<g clip-path="url(#clip0_5486_3690)">
<path d="M24.7001 35.1179H19.0734V28.8758H15.3137V35.1081H9.65878C9.65266 34.9891 9.64285 34.8751 9.64285 34.7611C9.64285 31.8178 9.6453 28.8745 9.63672 25.9325C9.63672 25.6824 9.70782 25.5353 9.91989 25.3955C12.2429 23.8595 14.5598 22.3162 16.8718 20.763C17.1035 20.6073 17.2579 20.6036 17.4921 20.7605C19.8028 22.3137 22.1234 23.8509 24.4329 25.4066C24.5677 25.4973 24.705 25.702 24.705 25.854C24.721 28.888 24.7161 31.9233 24.7149 34.9573C24.7149 34.9965 24.7075 35.0345 24.6989 35.1179H24.7001Z" fill="#EB7124"/>
<path d="M30.1056 35.1224H26.0039V26.4776C26.0934 26.5009 26.1939 26.5266 26.3128 26.556C27.0018 25.5226 27.6833 24.4856 28.3882 23.4656C28.4789 23.3345 28.691 23.2143 28.8479 23.2143C33.6496 23.2008 38.4501 23.2033 43.2518 23.2033H43.5399V31.69C41.2806 29.7506 38.7259 29.0102 35.8635 29.7531C33.0109 30.4935 31.1329 32.3642 30.1056 35.1224Z" fill="#EB7124"/>
<path d="M37.9739 30.6836C34.1443 30.6824 31.0637 33.7617 31.0625 37.5889C31.0625 41.4173 34.1431 44.4979 37.9702 44.4991C41.7986 44.4991 44.8817 41.4185 44.8817 37.5913C44.8817 33.7642 41.8035 30.6836 37.9739 30.6836ZM41.0937 40.7725C40.5605 41.4295 39.8679 41.7654 39.0196 41.7544C38.4557 41.7482 37.9445 41.5644 37.4971 41.2211C36.9393 40.7945 36.2111 40.8558 35.7367 41.3744C35.6546 41.4638 35.5725 41.5533 35.4854 41.6477C35.1667 41.3547 34.8516 41.0654 34.5268 40.7663C34.6653 40.6205 34.7953 40.4733 34.9375 40.3373C35.1814 40.1007 35.4695 39.9303 35.7858 39.8053C36.3447 39.5846 36.7333 38.9999 36.726 38.3967C36.726 38.371 36.7223 38.344 36.7199 38.3109H35.0208V37.0091H36.1351C36.0885 36.8436 36.0358 36.6879 36.0003 36.5273C35.6926 35.1335 36.6353 33.7262 38.0426 33.4737C38.1333 33.4577 38.2228 33.443 38.3135 33.4283H38.7205C38.8455 33.4491 38.9718 33.4639 39.0944 33.4945C40.0236 33.7299 40.6365 34.3109 40.9699 35.2144C40.5531 35.348 40.1449 35.4779 39.7306 35.6103C39.7073 35.5576 39.6877 35.5086 39.6656 35.4608C39.4253 34.9398 38.8688 34.6517 38.2902 34.7473C37.7484 34.8368 37.3156 35.3002 37.2519 35.8543C37.2127 36.189 37.3156 36.4844 37.4885 36.7627C37.5906 36.9261 37.7365 37.0078 37.9261 37.0078H39.7257V38.306H38.0254C38.0401 38.8466 37.9175 39.348 37.6478 39.8175C37.6748 39.8298 37.6993 39.8396 37.7226 39.8531C37.9077 39.9634 38.1063 40.0578 38.2779 40.1877C38.8553 40.6254 39.6681 40.5199 40.0983 39.9364C40.1829 39.8212 40.2626 39.7023 40.3484 39.5797C40.7052 39.8273 41.0557 40.0713 41.4162 40.3213C41.307 40.4746 41.209 40.6303 41.0937 40.7725Z" fill="#EB7124"/>
<path d="M27.2873 22.7712C26.8227 23.4871 26.3777 24.1748 25.9155 24.8883C25.7255 24.7645 25.5637 24.6603 25.4019 24.5524C22.7933 22.8092 20.1809 21.0722 17.5846 19.3118C17.2671 19.0961 17.066 19.1231 16.7669 19.3253C14.1337 21.1028 11.4908 22.8632 8.84904 24.6284C8.73136 24.7069 8.61 24.7829 8.44696 24.8883C7.98726 24.1798 7.53737 23.4835 7.07031 22.7639C7.85241 22.2429 8.61245 21.7354 9.37249 21.2303C11.8782 19.5668 14.3826 17.9033 16.8834 16.2362C17.0697 16.1123 17.2045 16.0449 17.4325 16.1969C20.648 18.3483 23.872 20.4874 27.0936 22.6303C27.1475 22.6658 27.1978 22.7063 27.2873 22.7725V22.7712Z" fill="#EB7124"/>
<path d="M24.5938 19.4531H44.7911V21.9441H44.3694C39.1386 21.9441 33.9066 21.9465 28.6759 21.9355C28.4466 21.9355 28.188 21.8509 27.9943 21.7271C26.9719 21.07 25.9655 20.3885 24.9554 19.7142C24.8512 19.6444 24.7519 19.5684 24.595 19.4544L24.5938 19.4531Z" fill="#EB7124"/>
</g>
<defs>
<clipPath id="clip0_5486_3690">
<rect width="37.813" height="28.391" fill="white" transform="translate(7.07031 16.1094)"/>
</clipPath>
</defs>
</svg>