<svg width="53" height="53" viewBox="0 0 53 53" fill="none" xmlns="http://www.w3.org/2000/svg">
<ellipse cx="45.8274" cy="6.83286" rx="4.9524" ry="4.96567" stroke="#EB7124" stroke-width="3" stroke-linecap="round" stroke-linejoin="round"/>
<path d="M32.8648 3.69922H14.14C6.38122 3.69922 1.57031 9.20875 1.57031 16.9883V37.8678C1.57031 45.6473 6.28688 51.1332 14.14 51.1332H36.3079C44.0666 51.1332 48.8775 45.6473 48.8775 37.8678V19.684" stroke="#EB7124" stroke-width="3" stroke-linecap="round" stroke-linejoin="round"/>
<g clip-path="url(#clip0_5486_3695)">
<path d="M16.4471 22.7428C12.4812 20.5292 12.0705 15.4128 14.7549 12.5119C17.2724 9.79216 21.5526 9.65237 24.1791 12.2689C25.7257 13.8086 26.3814 15.6914 26.0786 17.8577C25.7788 20.0028 24.6073 21.5936 22.8071 22.6772C23.7298 23.0792 24.6786 23.4234 25.5551 23.8997C26.149 24.2226 26.717 24.4241 27.389 24.3586C27.7091 24.3277 28.0341 24.3528 28.4121 24.3528C28.4121 23.9421 28.4063 23.5632 28.413 23.1833C28.4526 21.0325 29.9818 19.1997 32.0626 18.8083C34.8164 18.2896 37.3533 20.3586 37.4092 23.1698C37.4169 23.5516 37.4101 23.9324 37.4101 24.3528C38.2076 24.3528 38.9645 24.3836 39.7175 24.346C41.0308 24.2805 41.6257 24.6709 41.7472 26.1855C42.0615 30.093 42.426 33.9966 42.7731 37.9021C42.9043 39.3752 43.0412 40.8483 43.1791 42.3215C43.2938 43.5507 42.5176 44.4396 41.2892 44.4405C35.7083 44.4463 30.1264 44.4463 24.5455 44.4405C23.2843 44.4396 22.5274 43.5275 22.6489 42.2588C22.8977 39.6615 23.1185 37.0604 23.3499 34.4613C23.3605 34.3436 23.3644 34.2251 23.374 34.0602H22.8852C17.9416 34.0602 12.9971 34.0602 8.05354 34.0602C7.3863 34.0602 7.18092 33.8259 7.28891 33.1703C8.16635 27.8842 11.166 24.4347 16.2619 22.8006C16.3063 22.7861 16.3516 22.7717 16.448 22.7418L16.4471 22.7428ZM28.4101 25.5184C27.4295 25.5184 26.4933 25.5087 25.5589 25.5338C25.4654 25.5367 25.3092 25.743 25.2976 25.8664C25.0238 28.751 24.7644 31.6374 24.507 34.5239C24.2785 37.0865 24.0586 39.6509 23.8253 42.2135C23.7472 43.0686 23.9255 43.2865 24.7702 43.2865C30.1939 43.2865 35.6186 43.2865 41.0424 43.2865C41.1388 43.2865 41.2352 43.2904 41.3307 43.2846C41.8031 43.2566 42.0635 42.978 42.0259 42.5085C41.9574 41.6456 41.8735 40.7837 41.7954 39.9219C41.565 37.3709 41.3345 34.8209 41.105 32.2699C40.9132 30.1383 40.7184 28.0067 40.5371 25.8741C40.513 25.5868 40.3867 25.5068 40.1244 25.5135C39.6674 25.5251 39.2103 25.5164 38.7533 25.5164C38.3136 25.5164 37.8739 25.5164 37.4092 25.5164C37.4092 25.9647 37.3909 26.361 37.4198 26.7534C37.4294 26.8893 37.5278 27.058 37.6377 27.139C38.1902 27.5458 38.4351 28.1947 38.2394 28.8223C38.0446 29.449 37.4883 29.8645 36.8384 29.8693C36.1894 29.8741 35.608 29.4586 35.4113 28.8512C35.2079 28.2197 35.4393 27.5536 35.9879 27.1631C36.0872 27.0927 36.2309 26.9915 36.2357 26.898C36.2618 26.4468 36.2473 25.9937 36.2473 25.5396H29.5672C29.5672 25.9561 29.5479 26.3513 29.5778 26.7428C29.5884 26.8797 29.6848 27.0503 29.7967 27.1323C30.4475 27.6085 30.6645 28.3942 30.3087 29.0759C30.0233 29.6225 29.4293 29.9339 28.8074 29.8635C28.2221 29.797 27.7091 29.3458 27.5558 28.7635C27.3996 28.1696 27.6397 27.5439 28.1459 27.1708C28.2559 27.0898 28.387 26.9539 28.3957 26.8344C28.4265 26.4169 28.4072 25.9956 28.4072 25.5193L28.4101 25.5184ZM8.52408 32.8811H23.4926C23.6614 30.9819 23.8041 29.1 24.0075 27.2248C24.101 26.3639 23.9246 25.4326 24.5677 24.6893C17.7806 21.2957 9.68693 25.5675 8.52408 32.8811ZM19.6039 22.3504C22.5641 22.3456 24.9968 19.9054 24.9968 16.9418C24.9968 13.9802 22.5602 11.541 19.5991 11.5372C16.6254 11.5333 14.1783 13.9879 14.1889 16.965C14.1995 19.9267 16.6409 22.3552 19.6049 22.3504H19.6039ZM36.2415 24.3268C36.2415 23.8823 36.2714 23.462 36.2357 23.0464C36.1171 21.6369 35.4094 20.6189 34.0855 20.1127C32.8205 19.6288 31.646 19.8785 30.6404 20.7914C29.5778 21.7555 29.4814 23.0088 29.6019 24.3268H36.2415ZM29.4524 28.3827C29.2403 28.2371 29.1082 28.0761 28.9935 28.0877C28.8797 28.0992 28.7023 28.2843 28.7033 28.3923C28.7033 28.4984 28.8884 28.6787 29.0022 28.6873C29.1159 28.696 29.2442 28.5331 29.4524 28.3827ZM36.8519 28.8464C36.9869 28.6237 37.1373 28.4849 37.119 28.375C37.0997 28.2583 36.9184 28.1686 36.8085 28.0665C36.7063 28.1793 36.5317 28.2872 36.524 28.4058C36.5173 28.5167 36.6879 28.6391 36.8519 28.8464Z" fill="#EB7124"/>
<path d="M37.5719 34.9196C37.5719 35.1635 37.5719 35.2946 37.5719 35.4248C37.5719 37.4214 37.5719 39.4171 37.5719 41.4137C37.5719 41.968 37.3906 42.1609 36.8458 42.1618C34.2251 42.1657 31.6044 42.1647 28.9836 42.1618C28.4369 42.1618 28.2508 41.9671 28.2498 41.4204C28.2479 39.4122 28.2498 37.404 28.2498 35.3959C28.2498 35.2657 28.2498 35.1365 28.2498 34.9196C27.7706 34.9196 27.328 34.9167 26.8864 34.9206C26.5962 34.9235 26.3542 34.829 26.2491 34.5455C26.1392 34.2515 26.2529 34.0153 26.495 33.8186C28.489 32.1932 30.4781 30.5619 32.4712 28.9355C32.7846 28.68 33.0353 28.6771 33.3457 28.9307C35.3388 30.5571 37.328 32.1874 39.322 33.8128C39.562 34.0085 39.6835 34.2399 39.5765 34.5378C39.4743 34.8232 39.2361 34.9215 38.9449 34.9196C38.5024 34.9167 38.0588 34.9196 37.5729 34.9196H37.5719ZM32.9128 31.7979C31.776 32.7273 30.6565 33.6354 29.5486 34.5581C29.4599 34.6323 29.4127 34.8039 29.4127 34.9302C29.404 36.8536 29.4069 38.7779 29.4079 40.7012C29.4079 40.7938 29.4233 40.8854 29.431 40.9799H30.9535C30.9535 40.8295 30.9535 40.7003 30.9535 40.5711C30.9535 39.4527 30.9496 38.3344 30.9554 37.217C30.9583 36.6897 31.1531 36.4988 31.6747 36.4968C32.4799 36.493 33.285 36.4949 34.0911 36.4968C34.686 36.4978 34.8692 36.6771 34.8702 37.2691C34.8731 38.3749 34.8702 39.4817 34.8711 40.5875C34.8711 40.7147 34.8711 40.843 34.8711 40.9837H36.3811C36.3946 40.9316 36.411 40.8979 36.411 40.8651C36.4129 38.8569 36.4158 36.8497 36.4071 34.8415C36.4071 34.7412 36.3387 34.6101 36.2596 34.5446C35.1585 33.6325 34.0496 32.7302 32.9128 31.7998V31.7979ZM33.6919 37.673H32.1482V40.975H33.6919V37.673ZM32.9118 30.0702C31.397 31.311 29.9015 32.5344 28.407 33.7588L28.4841 33.8639C28.6162 33.7752 28.7551 33.6971 28.8775 33.5969C30.0336 32.655 31.1868 31.7092 32.342 30.7663C32.8357 30.3633 32.9957 30.3643 33.4971 30.775C34.6609 31.7265 35.8228 32.68 36.9886 33.6296C37.0994 33.7193 37.2315 33.7829 37.353 33.8591C37.3762 33.8263 37.3983 33.7935 37.4215 33.7608C35.9289 32.5393 34.4363 31.3178 32.9118 30.0702Z" fill="#EB7124"/>
</g>
<defs>
<clipPath id="clip0_5486_3695">
<rect width="35.9297" height="34.0583" fill="white" transform="translate(7.25781 10.3867)"/>
</clipPath>
</defs>
</svg>