<svg width="53" height="53" viewBox="0 0 53 53" fill="none" xmlns="http://www.w3.org/2000/svg">
<g clip-path="url(#clip0_5486_3663)">
<path d="M18.9541 21.153C18.9541 20.9943 18.9541 20.8766 18.9541 20.7588C18.9541 18.8549 18.9541 16.951 18.9541 15.0471C18.9541 14.5351 19.1267 14.3642 19.6402 14.3633C23.359 14.3633 27.0779 14.3633 30.7976 14.3633C31.3084 14.3633 31.4819 14.5368 31.4819 15.0488C31.4819 19.3023 31.4819 23.5567 31.4819 27.8102V28.2524C31.9805 27.7501 32.4199 27.3079 32.8601 26.8657C33.5357 26.1872 33.6133 26.188 34.2906 26.8744C34.5495 27.1369 34.8058 27.403 35.1057 27.7108C35.1205 27.5748 35.1301 27.498 35.1371 27.4204C35.1676 27.1038 35.3463 26.9049 35.6557 26.9006C36.5257 26.8901 37.3957 26.8892 38.2657 26.9006C38.6092 26.9049 38.7879 27.1273 38.7896 27.5128C38.7931 28.6876 38.7984 29.8633 38.7853 31.0381C38.7827 31.2893 38.862 31.4602 39.0381 31.6312C39.7468 32.3228 40.4433 33.0258 41.1416 33.727C41.4624 34.0497 41.4807 34.2381 41.2323 34.6148C40.9271 35.078 40.622 35.5411 40.3082 35.9981C40.0528 36.3696 39.7346 36.3967 39.4077 36.0879C39.3127 35.9981 39.2203 35.9056 39.1331 35.8097C39.0459 35.7129 38.9657 35.6091 38.8193 35.5437V42.5515H41.3752V43.5876H9.05469V42.5724H9.55768V42.139C9.55768 35.5681 9.55768 28.9964 9.55768 22.4255C9.55768 21.5298 9.93253 21.1522 10.8208 21.1522C13.3977 21.1522 15.9754 21.1522 18.5523 21.1522H18.9533L18.9541 21.153ZM20.0107 42.5428H22.6076C22.6076 41.3671 22.6067 40.215 22.6076 39.0637C22.6076 38.5701 22.7845 38.3904 23.2692 38.3896C24.5629 38.3878 25.8566 38.3878 27.1502 38.3896C27.6549 38.3896 27.8258 38.5657 27.8267 39.0829C27.8284 40.1269 27.8267 41.1709 27.8267 42.2157V42.5489H28.3218V35.4591C28.0882 35.7094 27.9182 35.9083 27.7317 36.0888C27.4091 36.4019 27.0866 36.3705 26.832 36.0007C26.5304 35.562 26.2384 35.1163 25.9437 34.6733C25.6447 34.2241 25.6604 34.0689 26.044 33.686C27.4283 32.3019 28.81 30.916 30.2004 29.538C30.366 29.3732 30.4428 29.2136 30.4428 28.9737C30.4349 24.5798 30.4367 20.185 30.4367 15.791V15.4291H20.0089V42.5445L20.0107 42.5428ZM18.9306 42.5498V22.2136H10.6212V42.5428H12.1555C12.1607 42.4765 12.1659 42.4338 12.1668 42.391C12.1738 41.7605 12.1206 41.122 12.1999 40.5002C12.3804 39.0838 13.5502 38.2736 15.1464 38.3939C16.4226 38.4907 17.3763 39.5452 17.3868 40.8778C17.3911 41.4299 17.3868 41.982 17.3868 42.5498H18.9297H18.9306ZM31.4827 42.5532C31.4827 41.4901 31.4749 40.4583 31.4854 39.4265C31.4941 38.5518 32.1671 37.8854 33.0405 37.8671C33.3666 37.8601 33.6926 37.8636 34.0186 37.8663C34.9932 37.8732 35.6531 38.53 35.6575 39.5077C35.6618 40.4103 35.6584 41.313 35.6584 42.2157C35.6584 42.3291 35.6584 42.4434 35.6584 42.548H37.7348C37.7392 42.4782 37.7462 42.425 37.7462 42.3727C37.7462 39.7955 37.7497 37.2182 37.7383 34.641C37.7383 34.5023 37.6442 34.3349 37.5422 34.2311C36.2965 32.9708 35.0412 31.7193 33.7885 30.466C33.7214 30.3988 33.6481 30.3386 33.5723 30.2706C33.5235 30.3099 33.4886 30.3334 33.459 30.3631C32.1514 31.6696 30.8411 32.9734 29.544 34.2895C29.4472 34.3872 29.4019 34.5756 29.401 34.7221C29.3923 37.2235 29.3949 39.7248 29.3958 42.2262C29.3958 42.3317 29.4054 42.4364 29.4106 42.5541H31.4836L31.4827 42.5532ZM27.4117 34.9855C27.5251 34.8495 27.5957 34.7518 27.6802 34.6672C29.4621 32.881 31.2448 31.0957 33.0283 29.3104C33.472 28.8656 33.6699 28.8647 34.1128 29.3077C35.9042 31.1 37.6947 32.8932 39.4853 34.6864C39.5672 34.7683 39.6535 34.8468 39.759 34.9471C39.9133 34.7117 40.0537 34.498 40.1757 34.3105C37.9493 32.0882 35.7508 29.8938 33.588 27.7344C31.4017 29.9148 29.1953 32.1144 26.9732 34.3305C27.0953 34.5128 27.233 34.7178 27.4117 34.9855ZM16.3415 42.5506C16.3415 41.9253 16.3546 41.3383 16.3381 40.7514C16.3206 40.1504 15.9144 39.6394 15.3303 39.4963C15.0819 39.4353 14.8143 39.4318 14.5562 39.4379C13.9277 39.4518 13.3506 39.8635 13.2765 40.4845C13.1954 41.1639 13.2582 41.8599 13.2582 42.5506H16.3415ZM32.5271 42.5454H34.6131C34.6131 41.4944 34.6193 40.4653 34.6097 39.4353C34.6062 39.1126 34.3961 38.9233 34.064 38.9137C33.7388 38.9041 33.4128 38.905 33.0876 38.9137C32.738 38.9233 32.5332 39.1143 32.5306 39.4579C32.5227 40.4775 32.528 41.4979 32.528 42.5463L32.5271 42.5454ZM24.6814 39.451H23.6728V42.5419H24.6814V39.451ZM25.7633 39.4475V42.5402H26.7675V39.4475H25.7633ZM36.1535 27.9559C36.1831 28.2699 36.1082 28.6283 36.2546 28.8054C36.6888 29.3322 37.2101 29.7883 37.7244 30.2994V27.9559H36.1535Z" fill="#EB7124"/>
<path d="M39.3115 15.4135C39.3098 16.5665 38.3631 17.5049 37.2106 17.4971C36.0573 17.4892 35.1289 16.5438 35.1368 15.3865C35.1446 14.2492 36.08 13.3221 37.2211 13.3203C38.3744 13.3186 39.3133 14.2588 39.3106 15.4144L39.3115 15.4135ZM38.2663 15.4048C38.2646 14.8353 37.7999 14.3695 37.2289 14.3643C36.6606 14.3591 36.1872 14.8239 36.1811 15.3926C36.175 15.9769 36.651 16.4549 37.2342 16.4496C37.8034 16.4444 38.2672 15.9743 38.2663 15.4048Z" fill="#EB7124"/>
<path d="M33.9531 12.7982C34.1589 12.5958 34.396 12.363 34.6061 12.1562C34.9678 12.5077 35.3287 12.8592 35.6879 13.2089C35.4726 13.4252 35.2398 13.6581 35.0193 13.8788C34.6714 13.5264 34.3166 13.1662 33.9531 12.7982Z" fill="#EB7124"/>
<path d="M39.3868 13.8666C39.1915 13.6643 38.9674 13.4314 38.7617 13.2177C39.113 12.8706 39.4722 12.5165 39.8453 12.1484C40.0275 12.3455 40.2515 12.588 40.459 12.813C40.1269 13.1392 39.7686 13.4916 39.3876 13.8666H39.3868Z" fill="#EB7124"/>
<path d="M40.4664 18.0554C40.279 18.242 40.0428 18.4775 39.8353 18.6842C39.4718 18.3223 39.1135 17.9656 38.7578 17.6115C38.974 17.4048 39.2076 17.1824 39.4142 16.9844C39.7376 17.3132 40.0898 17.6725 40.4664 18.0554Z" fill="#EB7124"/>
<path d="M34.593 18.6761C34.3908 18.4737 34.1615 18.2452 33.9453 18.0289C34.3106 17.6713 34.6706 17.3198 35.042 16.957C35.2268 17.1594 35.4499 17.4036 35.6618 17.6356C35.334 17.9539 34.9722 18.3071 34.5921 18.6761H34.593Z" fill="#EB7124"/>
<path d="M34.5976 15.918H33.0703V14.9062H34.5976V15.918Z" fill="#EB7124"/>
<path d="M36.707 19.5653V18.0469H37.7209V19.5653H36.707Z" fill="#EB7124"/>
<path d="M39.8555 14.9023H41.3775V15.9088H39.8555V14.9023Z" fill="#EB7124"/>
<path d="M36.7305 11.2422H37.7277V12.7789H36.7305V11.2422Z" fill="#EB7124"/>
<path d="M22.8428 24.811C22.4514 24.811 22.06 24.8145 21.6686 24.8101C21.2379 24.8057 21.0462 24.6208 21.0427 24.1979C21.0374 23.5673 21.0383 22.9358 21.0427 22.3053C21.0453 21.8735 21.231 21.6817 21.6538 21.6791C22.4584 21.6747 23.263 21.6747 24.0676 21.6791C24.4982 21.6808 24.6909 21.8683 24.6935 22.2904C24.6987 22.921 24.6979 23.5525 24.6935 24.183C24.6909 24.6235 24.5 24.8066 24.0493 24.8101C23.6465 24.8136 23.2447 24.8101 22.8419 24.8101L22.8428 24.811ZM23.6361 22.744H22.1105V23.7487H23.6361V22.744Z" fill="#EB7124"/>
<path d="M22.9004 26.8964C23.3032 26.8964 23.7051 26.8912 24.1078 26.8982C24.4931 26.9043 24.6892 27.0979 24.6936 27.4843C24.7006 28.1366 24.7006 28.7899 24.6936 29.4423C24.6892 29.8277 24.4931 30.0249 24.1078 30.0283C23.2814 30.0344 22.455 30.0344 21.6286 30.0283C21.2433 30.0257 21.0471 29.8277 21.0436 29.4423C21.0375 28.7899 21.0375 28.1366 21.0436 27.4843C21.0471 27.0979 21.2424 26.9051 21.6294 26.899C22.0531 26.8921 22.4776 26.8973 22.9013 26.8973L22.9004 26.8964ZM23.6318 28.9695V27.9631H22.1098V28.9695H23.6318Z" fill="#EB7124"/>
<path d="M27.5648 30.0302C27.1516 30.0302 26.7384 30.0354 26.3252 30.0284C25.9407 30.0214 25.7463 29.8261 25.7429 29.4397C25.7368 28.7873 25.7368 28.1341 25.7429 27.4817C25.7463 27.0971 25.9434 26.9017 26.3304 26.8991C27.1568 26.893 27.9832 26.893 28.8096 26.8991C29.1941 26.9017 29.3893 27.0997 29.3928 27.4869C29.3989 28.1393 29.3998 28.7926 29.3928 29.4449C29.3885 29.8296 29.1915 30.0223 28.8044 30.0284C28.3912 30.0354 27.978 30.0302 27.5648 30.0302ZM28.3345 27.9597H26.8064V28.9609H28.3345V27.9597Z" fill="#EB7124"/>
<path d="M22.8642 16.455C23.2774 16.455 23.6906 16.4498 24.1038 16.4568C24.4908 16.4629 24.6896 16.6547 24.6939 17.0385C24.7009 17.6909 24.7 18.3441 24.6939 18.9965C24.6904 19.3837 24.4952 19.5834 24.1125 19.5869C23.2861 19.593 22.4597 19.593 21.6333 19.5869C21.2453 19.5843 21.0475 19.389 21.044 19.0052C21.037 18.3528 21.0379 17.6996 21.044 17.0472C21.0475 16.6591 21.241 16.4637 21.6245 16.4576C22.0378 16.4506 22.451 16.4559 22.8642 16.4559V16.455ZM23.6269 18.5316V17.5156H22.1057V18.5316H23.6269Z" fill="#EB7124"/>
<path d="M27.5903 16.4548C27.9817 16.4548 28.3731 16.4522 28.7645 16.4548C29.196 16.4592 29.3904 16.6432 29.3939 17.0636C29.3991 17.7055 29.4 18.3474 29.3939 18.9893C29.3904 19.3923 29.1943 19.5841 28.7854 19.5868C27.9695 19.5911 27.1544 19.592 26.3385 19.5868C25.9357 19.5841 25.7457 19.387 25.7422 18.978C25.737 18.3361 25.737 17.6942 25.7422 17.0523C25.7457 16.6484 25.9401 16.4609 26.3498 16.4557C26.763 16.4505 27.1762 16.4548 27.5894 16.4548H27.5903ZM26.811 17.511V18.5271H28.3321V17.511H26.811Z" fill="#EB7124"/>
<path d="M27.566 21.6777C27.9792 21.6777 28.3924 21.6724 28.8056 21.6794C29.1927 21.6855 29.3905 21.8783 29.394 22.262C29.401 22.9144 29.401 23.5676 29.394 24.22C29.3905 24.6064 29.1944 24.8061 28.8108 24.8087C27.9844 24.8148 27.158 24.8148 26.3316 24.8087C25.9446 24.8061 25.7475 24.6107 25.7432 24.2261C25.7362 23.5737 25.7371 22.9205 25.7432 22.2681C25.7467 21.88 25.9411 21.6864 26.3255 21.6794C26.7387 21.6724 27.1519 21.6777 27.5651 21.6777H27.566ZM28.3384 22.7461H26.8128V23.749H28.3384V22.7461Z" fill="#EB7124"/>
<path d="M22.8664 35.2537C22.4532 35.2537 22.04 35.2589 21.6268 35.2519C21.2424 35.245 21.0471 35.0505 21.0436 34.6632C21.0375 34.0109 21.0375 33.3576 21.0436 32.7052C21.0471 32.3197 21.2433 32.1244 21.6312 32.1218C22.4576 32.1157 23.284 32.1157 24.1104 32.1218C24.4948 32.1244 24.6901 32.3224 24.6936 32.7096C24.6997 33.362 24.7006 34.0152 24.6936 34.6676C24.6892 35.0522 24.4922 35.2458 24.1061 35.2519C23.6928 35.2589 23.2796 35.2537 22.8664 35.2537ZM23.6292 34.1949V33.1902H22.1028V34.1949H23.6292Z" fill="#EB7124"/>
<path d="M22.625 37.8454V36.8398H27.804V37.8454H22.625Z" fill="#EB7124"/>
<path d="M14.7934 28.4652C14.1195 28.4652 13.4448 28.4687 12.7709 28.4652C12.0823 28.4608 11.6525 28.0317 11.6481 27.3445C11.6438 26.6921 11.6429 26.0389 11.6481 25.3865C11.6534 24.7184 12.084 24.291 12.7587 24.2884C14.1073 24.2841 15.455 24.2841 16.8036 24.2884C17.4705 24.2902 17.9046 24.7245 17.9107 25.3908C17.9159 26.0546 17.9177 26.7183 17.9107 27.3811C17.9037 28.0282 17.4679 28.4574 16.8167 28.4635C16.1428 28.4696 15.4681 28.4643 14.7942 28.4652H14.7934ZM12.7038 27.3959H14.2416V25.3516H12.7038V27.3959ZM15.3173 25.3446V27.402H16.8463V25.3446H15.3173Z" fill="#EB7124"/>
<path d="M14.7863 34.7314C14.1124 34.7314 13.4377 34.7349 12.7638 34.7305C12.0787 34.7262 11.6515 34.2936 11.6471 33.6037C11.6437 32.9618 11.6437 32.3199 11.6471 31.6779C11.6515 30.9837 12.0743 30.5564 12.7638 30.5537C14.1124 30.5502 15.4601 30.5494 16.8087 30.5537C17.473 30.5564 17.9045 30.9933 17.9088 31.6623C17.9141 32.3146 17.9141 32.9679 17.9088 33.6202C17.9036 34.2918 17.4756 34.7235 16.8078 34.7288C16.134 34.734 15.4593 34.7296 14.7854 34.7296L14.7863 34.7314ZM15.318 31.6117V33.6673H16.8453V31.6117H15.318ZM14.2388 33.6717V31.6195H12.715V33.6717H14.2388Z" fill="#EB7124"/>
</g>
<ellipse cx="46.3508" cy="6.83286" rx="4.9524" ry="4.96567" stroke="#EB7124" stroke-width="3" stroke-linecap="round" stroke-linejoin="round"/>
<path d="M33.3882 3.69922H14.6634C6.90465 3.69922 2.09375 9.20875 2.09375 16.9883V37.8678C2.09375 45.6473 6.81032 51.1332 14.6634 51.1332H36.8313C44.5901 51.1332 49.401 45.6473 49.401 37.8678V19.684" stroke="#EB7124" stroke-width="3" stroke-linecap="round" stroke-linejoin="round"/>
<defs>
<clipPath id="clip0_5486_3663">
<rect width="32.3467" height="32.3467" fill="white" transform="translate(9.05469 11.2422)"/>
</clipPath>
</defs>
</svg>