<svg width="53" height="53" viewBox="0 0 53 53" fill="none" xmlns="http://www.w3.org/2000/svg">
<ellipse cx="46.3508" cy="6.83286" rx="4.9524" ry="4.96567" stroke="#EB7124" stroke-width="3" stroke-linecap="round" stroke-linejoin="round"/>
<path d="M33.3882 3.69922H14.6634C6.90465 3.69922 2.09375 9.20875 2.09375 16.9883V37.8678C2.09375 45.6473 6.81032 51.1332 14.6634 51.1332H36.8313C44.5901 51.1332 49.401 45.6473 49.401 37.8678V19.684" stroke="#EB7124" stroke-width="3" stroke-linecap="round" stroke-linejoin="round"/>
<g clip-path="url(#clip0_5486_3674)">
<path d="M43.3984 36.9498C43.1227 37.6339 42.6087 37.8525 41.8873 37.8484C38.0711 37.8277 34.2538 37.8391 30.4376 37.8391H29.9878V38.2599C29.9878 40.5608 29.9878 42.8628 29.9878 45.1637C29.9878 46.1525 29.5566 46.5888 28.5803 46.5888C26.7799 46.5888 24.9796 46.5888 23.1803 46.5888C22.2651 46.5888 21.8101 46.139 21.8101 45.23C21.8091 42.9177 21.8101 40.6043 21.8101 38.292V37.8391H21.3925C17.5306 37.8391 13.6678 37.8391 9.80594 37.8391C8.82027 37.838 8.39844 37.412 8.39844 36.4191C8.39844 29.5837 8.39844 22.7473 8.39844 15.9119C8.39844 14.9355 8.81613 14.5116 9.78418 14.5116C13.646 14.5116 17.5089 14.5116 21.3707 14.5116C21.5044 14.5116 21.6381 14.5116 21.8091 14.5116C21.8091 14.0193 21.8329 13.5653 21.8039 13.1145C21.7583 12.3993 22.0091 11.8769 22.686 11.5898H29.112C29.7888 11.8769 30.0375 12.4004 29.9929 13.1145C29.965 13.5653 29.9878 14.0193 29.9878 14.5126H30.4251C34.2631 14.5126 38.1011 14.523 41.9391 14.5033C42.6563 14.4992 43.1466 14.7386 43.3984 15.4185V36.9519V36.9498ZM9.57792 36.6482H42.2065V15.6994H9.57792V36.6482ZM28.8041 37.8598H23.0041V45.401H28.8041V37.8598ZM22.9927 14.4847H28.7938V12.7766H22.9927V14.4857V14.4847Z" fill="#EB7124"/>
<path d="M25.8671 34.9164C21.4591 34.9164 17.0521 34.9133 12.644 34.9205C12.1652 34.9205 11.7506 34.8034 11.507 34.3764C11.3941 34.1795 11.3298 33.9266 11.3277 33.6986C11.3122 32.1843 11.3153 30.669 11.3215 29.1548C11.3246 28.3888 11.7962 27.9266 12.5663 27.9266C21.4497 27.9255 30.3342 27.9255 39.2176 27.9266C40.0043 27.9266 40.4697 28.3888 40.4728 29.1796C40.478 30.6721 40.478 32.1636 40.4728 33.6561C40.4697 34.4769 40.0085 34.9174 39.1586 34.9174C34.7277 34.9185 30.2979 34.9174 25.8671 34.9174V34.9164ZM39.2933 29.1081H12.5072V33.7224H39.2923V29.1081H39.2933Z" fill="#EB7124"/>
<path d="M16.5826 22.0662C16.5826 21.4174 16.5463 20.7665 16.5909 20.1208C16.6634 19.0564 17.4719 18.2169 18.5311 18.0355C19.5355 17.8645 20.5771 18.4003 20.9969 19.3528C21.1347 19.6668 21.2187 20.0296 21.2269 20.3727C21.2549 21.5221 21.2508 22.6726 21.2342 23.822C21.2166 25.0367 20.3294 26.0348 19.1996 26.1509C17.9808 26.2763 16.8842 25.5518 16.6469 24.3806C16.536 23.8313 16.5847 23.2488 16.566 22.6809C16.5588 22.4756 16.565 22.2715 16.565 22.0662C16.5712 22.0662 16.5774 22.0662 16.5847 22.0662H16.5826ZM17.7351 22.0497C17.7351 22.6311 17.7258 23.2115 17.7372 23.793C17.7517 24.5092 18.2347 25.0015 18.9011 25.0004C19.5645 24.9994 20.0589 24.5009 20.0672 23.7888C20.0796 22.6612 20.0796 21.5335 20.0672 20.4048C20.0599 19.6772 19.5531 19.1694 18.8783 19.1776C18.2192 19.1859 17.7476 19.6865 17.7351 20.41C17.7258 20.9562 17.7331 21.5034 17.7341 22.0507L17.7351 22.0497Z" fill="#EB7124"/>
<path d="M30.5783 19.1761V21.505C31.139 21.505 31.6915 21.505 32.2449 21.505C32.5642 21.505 32.8005 21.6345 32.8761 21.962C32.9632 22.3445 32.7103 22.6565 32.2968 22.6648C31.7309 22.6762 31.165 22.6679 30.5814 22.6679V24.9823C30.7068 24.9885 30.8271 24.9999 30.9473 24.9999C31.7215 25.002 32.4958 24.9999 33.269 25.0009C33.3602 25.0009 33.4524 24.9968 33.5415 25.0103C33.8711 25.0621 34.0743 25.3077 34.0567 25.6249C34.0401 25.9286 33.8286 26.1566 33.5022 26.1586C32.3299 26.169 31.1577 26.17 29.9855 26.1597C29.6082 26.1566 29.4061 25.9192 29.3988 25.5088C29.3906 25.031 29.3968 24.5532 29.3968 24.0743C29.3968 22.3103 29.3968 20.5452 29.3968 18.7812C29.3968 18.1966 29.5875 18.01 30.1783 18.009C31.2365 18.008 32.2957 18.0069 33.3539 18.009C33.7996 18.009 34.0494 18.2142 34.0577 18.5728C34.066 18.948 33.8079 19.1709 33.3508 19.1729C32.5538 19.1761 31.7568 19.1729 30.9608 19.1729C30.8395 19.1729 30.7182 19.1729 30.5804 19.1729L30.5783 19.1761Z" fill="#EB7124"/>
<path d="M24.7336 25.0015C25.6436 25.0015 26.5184 25.0005 27.3921 25.0026C27.5279 25.0026 27.6678 25.0036 27.7974 25.0368C28.0865 25.1104 28.2586 25.3643 28.2202 25.6524C28.1808 25.9468 28.0078 26.151 27.7082 26.1541C26.5018 26.1675 25.2943 26.1686 24.0868 26.1541C23.7624 26.1499 23.5748 25.9074 23.5707 25.5498C23.5634 24.9238 23.5676 24.2968 23.5676 23.6707C23.5676 22.0083 23.5655 20.3448 23.5686 18.6823C23.5697 18.1931 23.9314 17.8925 24.3346 18.0428C24.6455 18.1589 24.7357 18.4107 24.7346 18.7248C24.7305 20.6837 24.7326 22.6426 24.7326 24.6015C24.7326 24.7238 24.7326 24.845 24.7326 25.0005L24.7336 25.0015Z" fill="#EB7124"/>
<path d="M13.6523 19.2158C13.6523 20.4544 13.6523 21.6826 13.6523 22.9118C13.6523 23.7886 13.6586 24.6655 13.6482 25.5423C13.644 25.9258 13.4025 26.1621 13.0626 26.1611C12.7175 26.1611 12.5019 25.9279 12.4874 25.5382C12.4842 25.447 12.4863 25.3557 12.4863 25.2645C12.4863 23.3741 12.4863 21.4836 12.4863 19.5931C12.4863 19.4697 12.4863 19.3464 12.4863 19.1733C12.1246 19.1733 11.7878 19.1754 11.4519 19.1733C11.0042 19.1692 10.7244 18.937 10.7306 18.5784C10.7368 18.2291 11.0032 18.0104 11.4385 18.0094C12.5205 18.0073 13.6026 18.0073 14.6846 18.0094C15.1355 18.0094 15.3801 18.2104 15.3874 18.5732C15.3956 18.9505 15.1396 19.1681 14.6795 19.1733C14.3716 19.1764 14.0648 19.1764 13.757 19.1795C13.7363 19.1795 13.7156 19.193 13.6534 19.2158H13.6523Z" fill="#EB7124"/>
<path d="M38.1424 19.1772C38.1424 19.57 38.1424 19.91 38.1424 20.2499C38.1424 21.9808 38.1424 23.7127 38.1424 25.4436C38.1424 25.9162 37.9382 26.166 37.562 26.165C37.1899 26.165 36.9785 25.9069 36.9785 25.4395C36.9764 23.492 36.9785 21.5445 36.9785 19.5959C36.9785 19.4716 36.9785 19.3482 36.9785 19.1762C36.622 19.1762 36.2851 19.1782 35.9483 19.1762C35.4912 19.172 35.2331 18.9502 35.2424 18.575C35.2518 18.2164 35.5015 18.0143 35.9483 18.0133C37.0303 18.0112 38.1124 18.0112 39.1944 18.0133C39.6266 18.0133 39.8951 18.2371 39.8992 18.5854C39.9034 18.9326 39.6287 19.171 39.2079 19.1762C38.8679 19.1803 38.528 19.1762 38.1435 19.1762L38.1424 19.1772Z" fill="#EB7124"/>
<path d="M17.1136 30.244H17.5973L18.245 31.8249H18.2706L18.9183 30.244H19.402V32.4258H19.0227V30.9268H19.0025L18.3995 32.4194H18.1161L17.5131 30.9237H17.4929V32.4258H17.1136V30.244ZM21.782 31.3349C21.782 31.57 21.7379 31.7713 21.6499 31.9389C21.5625 32.1058 21.4432 32.2337 21.2919 32.3224C21.1413 32.4112 20.9705 32.4556 20.7795 32.4556C20.5884 32.4556 20.4173 32.4112 20.266 32.3224C20.1154 32.233 19.9961 32.1048 19.908 31.9379C19.8207 31.7702 19.777 31.5692 19.777 31.3349C19.777 31.0998 19.8207 30.8988 19.908 30.7319C19.9961 30.5643 20.1154 30.4361 20.266 30.3473C20.4173 30.2585 20.5884 30.2141 20.7795 30.2141C20.9705 30.2141 21.1413 30.2585 21.2919 30.3473C21.4432 30.4361 21.5625 30.5643 21.6499 30.7319C21.7379 30.8988 21.782 31.0998 21.782 31.3349ZM21.3846 31.3349C21.3846 31.1694 21.3587 31.0298 21.3068 30.9162C21.2557 30.8018 21.1847 30.7156 21.0938 30.6573C21.0028 30.5984 20.8981 30.5689 20.7795 30.5689C20.6609 30.5689 20.5561 30.5984 20.4652 30.6573C20.3743 30.7156 20.3029 30.8018 20.2511 30.9162C20.1999 31.0298 20.1744 31.1694 20.1744 31.3349C20.1744 31.5004 20.1999 31.6403 20.2511 31.7546C20.3029 31.8683 20.3743 31.9545 20.4652 32.0135C20.5561 32.0717 20.6609 32.1009 20.7795 32.1009C20.8981 32.1009 21.0028 32.0717 21.0938 32.0135C21.1847 31.9545 21.2557 31.8683 21.3068 31.7546C21.3587 31.6403 21.3846 31.5004 21.3846 31.3349ZM22.1556 32.4258V30.244H22.9738C23.1414 30.244 23.282 30.2731 23.3957 30.3313C23.51 30.3896 23.5963 30.4712 23.6546 30.5763C23.7135 30.6808 23.743 30.8026 23.743 30.9418C23.743 31.0817 23.7132 31.2031 23.6535 31.3061C23.5945 31.4084 23.5075 31.4876 23.3925 31.5437C23.2774 31.5991 23.1361 31.6268 22.9685 31.6268H22.3857V31.2987H22.9152C23.0132 31.2987 23.0935 31.2852 23.156 31.2582C23.2185 31.2305 23.2646 31.1903 23.2945 31.1378C23.325 31.0845 23.3403 31.0192 23.3403 30.9418C23.3403 30.8643 23.325 30.7983 23.2945 30.7436C23.2639 30.6882 23.2174 30.6463 23.1549 30.6179C23.0924 30.5888 23.0118 30.5742 22.9131 30.5742H22.5509V32.4258H22.1556ZM23.2828 31.4371L23.8229 32.4258H23.3818L22.8513 31.4371H23.2828ZM24.0109 30.5753V30.244H25.7517V30.5753H25.0773V32.4258H24.6853V30.5753H24.0109ZM27.4522 30.9407C27.4345 30.8832 27.41 30.8317 27.3787 30.7862C27.3482 30.7401 27.3113 30.7006 27.2679 30.668C27.2253 30.6353 27.1763 30.6108 27.1209 30.5945C27.0655 30.5774 27.0051 30.5689 26.9398 30.5689C26.8226 30.5689 26.7182 30.5984 26.6266 30.6573C26.535 30.7163 26.4629 30.8029 26.4103 30.9173C26.3585 31.0309 26.3326 31.1694 26.3326 31.3327C26.3326 31.4975 26.3585 31.6371 26.4103 31.7514C26.4622 31.8658 26.5343 31.9528 26.6266 32.0124C26.7189 32.0714 26.8262 32.1009 26.9483 32.1009C27.0591 32.1009 27.155 32.0795 27.236 32.0369C27.3176 31.9943 27.3805 31.9339 27.4245 31.8558C27.4686 31.777 27.4906 31.6847 27.4906 31.5788L27.5801 31.5927H26.9877V31.2837H27.873V31.5458C27.873 31.7326 27.8333 31.8942 27.7537 32.0305C27.6742 32.1669 27.5648 32.272 27.4256 32.3459C27.2864 32.419 27.1266 32.4556 26.9462 32.4556C26.7452 32.4556 26.5687 32.4105 26.4167 32.3203C26.2654 32.2294 26.1472 32.1005 26.062 31.9336C25.9775 31.766 25.9352 31.5671 25.9352 31.337C25.9352 31.1609 25.96 31.0036 26.0098 30.8651C26.0602 30.7266 26.1305 30.609 26.2207 30.5124C26.3109 30.4151 26.4167 30.3413 26.5382 30.2908C26.6596 30.2397 26.7917 30.2141 26.9345 30.2141C27.0552 30.2141 27.1678 30.2319 27.2722 30.2674C27.3766 30.3022 27.4693 30.3519 27.5502 30.4165C27.6319 30.4812 27.699 30.5579 27.7516 30.6467C27.8042 30.7354 27.8386 30.8335 27.8549 30.9407H27.4522ZM28.468 32.4258H28.0462L28.8143 30.244H29.3022L30.0714 32.4258H29.6495L29.0668 30.6914H29.0497L28.468 32.4258ZM28.4819 31.5703H29.6325V31.8878H28.4819V31.5703ZM31.7179 30.9407C31.7001 30.8832 31.6756 30.8317 31.6444 30.7862C31.6138 30.7401 31.5769 30.7006 31.5336 30.668C31.4909 30.6353 31.4419 30.6108 31.3865 30.5945C31.3311 30.5774 31.2708 30.5689 31.2054 30.5689C31.0882 30.5689 30.9838 30.5984 30.8922 30.6573C30.8006 30.7163 30.7285 30.8029 30.676 30.9173C30.6241 31.0309 30.5982 31.1694 30.5982 31.3327C30.5982 31.4975 30.6241 31.6371 30.676 31.7514C30.7278 31.8658 30.7999 31.9528 30.8922 32.0124C30.9846 32.0714 31.0918 32.1009 31.214 32.1009C31.3248 32.1009 31.4206 32.0795 31.5016 32.0369C31.5833 31.9943 31.6461 31.9339 31.6902 31.8558C31.7342 31.777 31.7562 31.6847 31.7562 31.5788L31.8457 31.5927H31.2534V31.2837H32.1387V31.5458C32.1387 31.7326 32.0989 31.8942 32.0194 32.0305C31.9398 32.1669 31.8304 32.272 31.6912 32.3459C31.552 32.419 31.3922 32.4556 31.2118 32.4556C31.0108 32.4556 30.8343 32.4105 30.6824 32.3203C30.5311 32.2294 30.4128 32.1005 30.3276 31.9336C30.2431 31.766 30.2008 31.5671 30.2008 31.337C30.2008 31.1609 30.2257 31.0036 30.2754 30.8651C30.3258 30.7266 30.3961 30.609 30.4863 30.5124C30.5765 30.4151 30.6824 30.3413 30.8038 30.2908C30.9252 30.2397 31.0574 30.2141 31.2001 30.2141C31.3208 30.2141 31.4334 30.2319 31.5378 30.2674C31.6422 30.3022 31.7349 30.3519 31.8159 30.4165C31.8975 30.4812 31.9647 30.5579 32.0172 30.6467C32.0698 30.7354 32.1042 30.8335 32.1206 30.9407H31.7179ZM32.5209 32.4258V30.244H33.9399V30.5753H32.9161V31.1676H33.8664V31.4989H32.9161V32.0945H33.9484V32.4258H32.5209Z" fill="#EB7124"/>
</g>
<defs>
<clipPath id="clip0_5486_3674">
<rect width="35" height="35" fill="white" transform="translate(8.39844 11.5898)"/>
</clipPath>
</defs>
</svg>